<mxfile host="app.diagrams.net" modified="2024-07-04T06:36:14.378Z" agent="Mozilla/5.0 (Windows NT 10.0; Win64; x64) AppleWebKit/537.36 (KHTML, like Gecko) Chrome/125.0.0.0 Safari/537.36" version="24.6.4" etag="LdLZeDcJgaAXFx7k0qEk" type="github">
  <diagram name="第 1 页" id="3vjqmPdJ6XcVQOQbQPiu">
    <mxGraphModel>
      <root>
        <mxCell id="0" />
        <mxCell id="1" parent="0" />
      </root>
    </mxGraphModel>
  </diagram>
</mxfile>
